<svg width="20" height="16" viewBox="0 0 20 16" fill="none" xmlns="http://www.w3.org/2000/svg">
<path d="M19.4607 1.82016C18.757 2.12885 18.0071 2.33345 17.2254 2.4328C18.0296 1.95262 18.6434 1.19807 18.932 0.288577C18.1822 0.735635 17.3543 1.05141 16.472 1.22763C15.76 0.469529 14.7453 0 13.6383 0C11.4905 0 9.76141 1.74329 9.76141 3.88041C9.76141 4.18791 9.78743 4.48359 9.8513 4.76507C6.6261 4.60777 3.77226 3.06199 1.85512 0.70725C1.52041 1.28795 1.32409 1.95263 1.32409 2.66815C1.32409 4.01169 2.01596 5.20266 3.04727 5.89217C2.42399 5.88035 1.81254 5.69939 1.29452 5.41437C1.29452 5.42619 1.29452 5.44157 1.29452 5.45694C1.29452 7.34215 2.63924 8.90804 4.40264 9.26876C4.08686 9.3551 3.74269 9.39649 3.38552 9.39649C3.13716 9.39649 2.88642 9.3823 2.65107 9.33026C3.15371 10.8666 4.58004 11.996 6.27602 12.0327C4.95614 13.0652 3.28026 13.6873 1.46601 13.6873C1.14787 13.6873 0.842732 13.6731 0.537598 13.6341C2.25605 14.7423 4.29265 15.375 6.48891 15.375C13.6276 15.375 17.5305 9.46154 17.5305 4.33575C17.5305 4.16426 17.5246 3.99868 17.5163 3.83429C18.2863 3.28788 18.9332 2.60547 19.4607 1.82016Z" fill="black"/>
</svg>
