<svg width="96" height="17" viewBox="0 0 96 17" fill="none" xmlns="http://www.w3.org/2000/svg">
<path d="M8.49106 0.681559C8.56875 0.457383 8.88579 0.457382 8.96349 0.681558L10.6284 5.48537C10.6633 5.58601 10.7581 5.6535 10.8646 5.6535H16.2163C16.4623 5.6535 16.5604 5.9716 16.357 6.11012L12.0558 9.03984C11.9625 9.10341 11.9233 9.22164 11.9603 9.32833L13.6097 14.0873C13.6885 14.3148 13.4317 14.5114 13.2327 14.3758L8.86801 11.4029C8.7831 11.345 8.67145 11.345 8.58654 11.4029L4.22183 14.3758C4.02282 14.5114 3.76602 14.3148 3.84488 14.0873L5.49425 9.32833C5.53123 9.22164 5.4921 9.10341 5.39877 9.03984L1.09753 6.11012C0.894156 5.9716 0.992198 5.6535 1.23827 5.6535H6.58993C6.69645 5.6535 6.79127 5.58601 6.82615 5.48537L8.49106 0.681559Z" fill="#FBB040"/>
<path d="M28.1278 0.681559C28.2055 0.457383 28.5225 0.457382 28.6002 0.681558L30.2651 5.48537C30.3 5.58601 30.3948 5.6535 30.5013 5.6535H35.853C36.0991 5.6535 36.1971 5.9716 35.9937 6.11012L31.6925 9.03984C31.5992 9.10341 31.56 9.22164 31.597 9.32833L33.2464 14.0873C33.3252 14.3148 33.0685 14.5114 32.8694 14.3758L28.5047 11.4029C28.4198 11.345 28.3082 11.345 28.2233 11.4029L23.8585 14.3758C23.6595 14.5114 23.4027 14.3148 23.4816 14.0873L25.131 9.32833C25.1679 9.22164 25.1288 9.10341 25.0355 9.03984L20.7342 6.11012C20.5309 5.9716 20.6289 5.6535 20.875 5.6535H26.2267C26.3332 5.6535 26.428 5.58601 26.4629 5.48537L28.1278 0.681559Z" fill="#FBB040"/>
<path d="M47.7635 0.681559C47.8412 0.457383 48.1583 0.457382 48.236 0.681558L49.9009 5.48537C49.9357 5.58601 50.0306 5.6535 50.1371 5.6535H55.4887C55.7348 5.6535 55.8329 5.9716 55.6295 6.11012L51.3282 9.03984C51.2349 9.10341 51.1958 9.22164 51.2328 9.32833L52.8821 14.0873C52.961 14.3148 52.7042 14.5114 52.5052 14.3758L48.1405 11.4029C48.0556 11.345 47.9439 11.345 47.859 11.4029L43.4943 14.3758C43.2953 14.5114 43.0385 14.3148 43.1173 14.0873L44.7667 9.32833C44.8037 9.22164 44.7646 9.10341 44.6712 9.03984L40.37 6.11012C40.1666 5.9716 40.2647 5.6535 40.5107 5.6535H45.8624C45.9689 5.6535 46.0637 5.58601 46.0986 5.48537L47.7635 0.681559Z" fill="#FBB040"/>
<path d="M67.4002 0.681559C67.4779 0.457383 67.795 0.457382 67.8727 0.681558L69.5376 5.48537C69.5725 5.58601 69.6673 5.6535 69.7738 5.6535H75.1255C75.3715 5.6535 75.4696 5.9716 75.2662 6.11012L70.965 9.03984C70.8716 9.10341 70.8325 9.22164 70.8695 9.32833L72.5188 14.0873C72.5977 14.3148 72.3409 14.5114 72.1419 14.3758L67.7772 11.4029C67.6923 11.345 67.5806 11.345 67.4957 11.4029L63.131 14.3758C62.932 14.5114 62.6752 14.3148 62.7541 14.0873L64.4034 9.32833C64.4404 9.22164 64.4013 9.10341 64.308 9.03984L60.0067 6.11012C59.8033 5.9716 59.9014 5.6535 60.1474 5.6535H65.4991C65.6056 5.6535 65.7004 5.58601 65.7353 5.48537L67.4002 0.681559Z" fill="#FBB040"/>
<path d="M87.037 0.681559C87.1147 0.457383 87.4317 0.457382 87.5094 0.681558L89.1743 5.48537C89.2092 5.58601 89.304 5.6535 89.4105 5.6535H94.7622C95.0082 5.6535 95.1063 5.9716 94.9029 6.11012L90.6017 9.03984C90.5083 9.10341 90.4692 9.22164 90.5062 9.32833L92.1556 14.0873C92.2344 14.3148 91.9776 14.5114 91.7786 14.3758L87.4139 11.4029C87.329 11.345 87.2173 11.345 87.1324 11.4029L82.7677 14.3758C82.5687 14.5114 82.3119 14.3148 82.3908 14.0873L84.0401 9.32833C84.0771 9.22164 84.038 9.10341 83.9447 9.03984L79.6434 6.11012C79.4401 5.9716 79.5381 5.6535 79.7842 5.6535H85.1358C85.2423 5.6535 85.3372 5.58601 85.372 5.48537L87.037 0.681559Z" fill="#FBB040"/>
</svg>
