<svg width="22" height="21" viewBox="0 0 22 21" fill="none" xmlns="http://www.w3.org/2000/svg">
<path d="M20.9045 6.22695L18.6689 4.87512V0.283502C18.6689 0.138305 18.5513 0.0209465 18.4063 0.0209465H15.092C14.9472 0.0209465 14.8297 0.138305 14.8297 0.283502V2.55398L10.6678 0.0377693C10.6414 0.0219479 10.6124 0.0117341 10.5825 0.00692755C10.5156 -0.00869362 10.4455 0.0023213 10.3867 0.0377693L0.157821 6.22695C0.0793151 6.27421 0.03125 6.35973 0.03125 6.45145V8.61698C0.03125 8.71111 0.0815181 8.79803 0.163028 8.84469C0.244739 8.89155 0.345075 8.89115 0.426185 8.84369L1.96667 7.94307V18.5218H1.23368C1.08868 18.5218 0.971323 18.6392 0.971323 18.7843V20.7374C0.971323 20.8824 1.08868 20.9999 1.23368 20.9999H19.8286C19.9736 20.9999 20.0912 20.8824 20.0912 20.7374V18.7843C20.0912 18.6392 19.9736 18.5218 19.8286 18.5218H19.0957V7.94367L20.6363 8.84369C20.6772 8.86752 20.7229 8.87954 20.7687 8.87954C20.8138 8.87954 20.8588 8.86792 20.8993 8.84469C20.981 8.79803 21.0311 8.71111 21.0311 8.61698V6.45145C21.0311 6.35973 20.983 6.27421 20.9045 6.22695ZM15.3546 0.545857H18.1438V4.55769L15.3546 2.87141V0.545857ZM19.5661 20.4748H1.49623V19.0467H19.5661V20.4748ZM12.8937 18.5218H8.16867V10.3231H12.8937V18.5218ZM18.5707 18.5218H13.4188V10.0605C13.4188 9.91534 13.3012 9.79798 13.1562 9.79798H7.90611C7.76131 9.79798 7.64376 9.91534 7.64376 10.0605V18.5218H2.49158V7.63605L10.5273 2.9377L18.5707 7.63686V18.5218ZM20.5062 8.15976L10.6596 2.40698C10.6188 2.38314 10.5729 2.37113 10.5273 2.37113C10.4814 2.37113 10.4357 2.38314 10.3947 2.40698L0.556161 8.15936V6.59925L10.5273 0.566485L20.5062 6.59925V8.15976Z" fill="#31353B"/>
</svg>
