<svg width="86" height="27" viewBox="0 0 86 27" fill="none" xmlns="http://www.w3.org/2000/svg">
<path d="M45.3983 6.70527C45.3983 7.66702 44.6279 8.44143 43.6719 8.44143C42.7159 8.44143 41.946 7.66702 41.946 6.70527C41.946 5.74353 42.6896 4.96911 43.6719 4.96911C44.655 4.99579 45.3983 5.77048 45.3983 6.70527ZM38.2816 10.2048V10.6323C38.2816 10.6323 37.4587 9.56329 35.706 9.56329C32.8119 9.56329 30.5544 11.7806 30.5544 14.8524C30.5544 17.8977 32.7854 20.1414 35.706 20.1414C37.4852 20.1414 38.2816 19.0463 38.2816 19.0463V19.5002C38.2816 19.7139 38.4413 19.8738 38.6535 19.8738H40.804V9.82961H38.6535C38.4413 9.83041 38.2816 10.0177 38.2816 10.2048ZM38.2816 16.6422C37.8837 17.23 37.0868 17.7376 36.131 17.7376C34.4317 17.7376 33.1302 16.6691 33.1302 14.8524C33.1302 13.0359 34.4317 11.9674 36.131 11.9674C37.0605 11.9674 37.9102 12.5016 38.2816 13.0626V16.6422ZM42.3975 9.83041H44.9465V19.8746H42.3975V9.83041ZM80.4761 9.56303C78.7234 9.56303 77.9 10.632 77.9 10.632V4.9958H75.351V19.8746H77.5021C77.7146 19.8746 77.8735 19.6875 77.8735 19.5004V19.0465C77.8735 19.0465 78.6969 20.1417 80.449 20.1417C83.3437 20.1417 85.6006 17.8985 85.6006 14.8532C85.6006 11.8078 83.3436 9.56303 80.4761 9.56303ZM80.0511 17.7106C79.0683 17.7106 78.2984 17.2036 77.9 16.6155V13.0359C78.2984 12.5016 79.1481 11.9407 80.0511 11.9407C81.7504 11.9407 83.0516 13.0092 83.0516 14.8257C83.0516 16.6422 81.7507 17.7106 80.0511 17.7106ZM74.0236 13.9178V19.9013H71.474V14.2114C71.474 12.5555 70.943 11.8873 69.51 11.8873C68.7401 11.8873 67.9433 12.2881 67.4379 12.876V19.8748H64.8894V9.83068H66.9068C67.1193 9.83068 67.2787 10.0177 67.2787 10.2048V10.6323C68.0223 9.85736 69.0046 9.56329 69.9869 9.56329C71.1024 9.56329 72.0319 9.88432 72.7755 10.5253C73.6779 11.2733 74.0236 12.2348 74.0236 13.9178ZM58.7014 9.56303C56.9493 9.56303 56.1259 10.632 56.1259 10.632V4.9958H53.5769V19.8746H55.7275C55.94 19.8746 56.0994 19.6875 56.0994 19.5004V19.0465C56.0994 19.0465 56.9228 20.1417 58.6749 20.1417C61.5696 20.1417 63.8265 17.8985 63.8265 14.8532C63.853 11.8075 61.5961 9.56303 58.7014 9.56303ZM58.2765 17.7106C57.2942 17.7106 56.5244 17.2036 56.1259 16.6155V13.0359C56.5244 12.5016 57.374 11.9407 58.2765 11.9407C59.9763 11.9407 61.2772 13.0092 61.2772 14.8257C61.2772 16.6422 59.9763 17.7106 58.2765 17.7106ZM51.3728 9.56303C52.1426 9.56303 52.541 9.69698 52.541 9.69698V12.0741C52.541 12.0741 50.4167 11.3528 49.0893 12.8758V19.901H46.5398V9.83041H48.6909C48.9033 9.83041 49.0622 10.0175 49.0622 10.2045V10.632C49.5408 10.0708 50.5764 9.56303 51.3728 9.56303ZM24.8988 18.9662C24.7662 18.6457 24.6333 18.2985 24.5007 18.0045C24.2879 17.5238 24.0754 17.0694 23.89 16.6422L23.8635 16.6155C22.031 12.6084 20.0664 8.54844 17.9949 4.54188L17.9153 4.38123C17.6974 3.96559 17.4851 3.54704 17.2784 3.12568C17.0126 2.64454 16.7473 2.13751 16.3223 1.65637C15.4726 0.587882 14.2511 0 12.9502 0C11.6222 0 10.4274 0.587885 9.5515 1.60273C9.15306 2.08334 8.86073 2.5909 8.59546 3.07204C8.38822 3.49314 8.1759 3.91169 7.95854 4.32759L7.8787 4.48824C5.83398 8.4948 3.84257 12.555 2.01034 16.5618L1.98355 16.6149C1.79786 17.043 1.58511 17.4969 1.37263 17.9772C1.23999 18.2713 1.10735 18.5918 0.974717 18.939C0.629332 19.9271 0.522953 20.8622 0.656119 21.8242C0.948184 23.8278 2.27561 25.51 4.10811 26.2585C4.79861 26.5526 5.51564 26.686 6.25894 26.686C6.47142 26.686 6.7367 26.6594 6.94945 26.6324C7.82591 26.5257 8.72863 26.2321 9.60509 25.7246C10.6938 25.11 11.7294 24.2288 12.8976 22.9466C14.0659 24.2288 15.1281 25.11 16.1902 25.7246C17.0669 26.2321 17.9694 26.5257 18.8456 26.6324C19.0581 26.6596 19.3239 26.686 19.5364 26.686C20.2799 26.686 21.0232 26.5526 21.6869 26.2585C23.5459 25.51 24.8468 23.8011 25.1392 21.8242C25.3501 20.8894 25.2439 19.9549 24.8988 18.9662ZM12.9234 20.3552C11.4893 18.5387 10.5598 16.8292 10.2415 15.3871C10.1088 14.7726 10.082 14.2383 10.1619 13.7575C10.2147 13.3299 10.3744 12.9558 10.5869 12.6353C11.0914 11.9145 11.9411 11.4601 12.9236 11.4601C13.9065 11.4601 14.7827 11.8876 15.2607 12.6353C15.4732 12.9558 15.6323 13.3302 15.6859 13.7575C15.7652 14.2386 15.7387 14.7993 15.6061 15.3871C15.2864 16.8025 14.3569 18.5123 12.9234 20.3552ZM23.5178 21.6107C23.3321 22.9997 22.4026 24.2022 21.1017 24.7364C20.4645 25.0033 19.7738 25.0836 19.0838 25.0033C18.4201 24.9229 17.7558 24.7092 17.0659 24.3089C16.1098 23.7741 15.1541 22.9466 14.0386 21.7175C15.791 19.5541 16.8531 17.577 17.2516 15.8144C17.4375 14.9861 17.4643 14.2383 17.3842 13.5434C17.2784 12.8758 17.0391 12.2612 16.6674 11.7269C15.8438 10.5245 14.4628 9.83041 12.9231 9.83041C11.3835 9.83041 10.0025 10.5517 9.17932 11.7269C8.80768 12.2612 8.5684 12.8758 8.46229 13.5434C8.35618 14.2383 8.38244 15.0127 8.59493 15.8144C8.9931 17.577 10.0818 19.5805 11.8076 21.7442C10.719 22.973 9.73639 23.8013 8.78035 24.3356C8.08985 24.7364 7.42641 24.9502 6.76269 25.0299C6.04593 25.1103 5.35516 25.0033 4.7445 24.7631C3.44361 24.2288 2.51409 23.0264 2.3284 21.6374C2.24882 20.9697 2.30161 20.3021 2.56741 19.5541C2.64673 19.2867 2.77989 19.0198 2.91253 18.6993C3.09849 18.2718 3.31044 17.8174 3.52319 17.3635L3.54998 17.3104C5.38195 13.3299 7.34683 9.26975 9.39155 5.31656L9.47112 5.15591C9.68387 4.75563 9.89636 4.32813 10.1086 3.92731C10.3211 3.49981 10.5598 3.09899 10.8521 2.75154C11.4097 2.11109 12.153 1.76338 12.9764 1.76338C13.7998 1.76338 14.5431 2.11109 15.1007 2.75154C15.3931 3.09979 15.6318 3.50061 15.8443 3.92731C16.057 4.32813 16.2695 4.75563 16.4815 5.15591L16.5613 5.31656C18.5749 9.28617 20.5136 13.2937 22.3766 17.337V17.3637C22.5894 17.7918 22.7751 18.2721 22.9875 18.7001C23.1202 19.0201 23.2531 19.287 23.3327 19.5543C23.5446 20.2482 23.6242 20.9164 23.5178 21.6107Z" fill="#718087"/>
</svg>
