<svg width="71" height="24" viewBox="0 0 71 24" fill="none" xmlns="http://www.w3.org/2000/svg">
<path d="M14.6815 11.8453C15.8617 11.9402 16.8531 12.4144 17.7028 13.3154C18.5525 14.2165 18.9774 15.4494 18.9774 17.0144C18.9774 18.9113 18.3637 20.4763 17.0891 21.6144C15.8145 22.7525 14.0206 23.3216 11.613 23.3216H0V0.843262H11.5658C13.5957 0.843262 15.248 1.41233 16.4754 2.50306C17.7028 3.6412 18.3165 5.1113 18.3165 6.96079C18.3165 8.38347 17.9388 9.47419 17.1363 10.3278C16.3338 11.1814 15.5312 11.6082 14.6343 11.7031L14.6815 11.8453ZM5.52327 10.1381H10.3384C11.141 10.1381 11.8019 9.90099 12.3211 9.42677C12.7932 8.95254 13.0765 8.38347 13.0765 7.57728C13.0765 6.86594 12.8404 6.34429 12.3684 5.91749C11.8963 5.49068 11.2826 5.30099 10.5745 5.30099H5.52327V10.1381ZM10.6217 18.8639C11.4714 18.8639 12.1795 18.6268 12.6516 18.2C13.1237 17.7732 13.3597 17.1567 13.3597 16.3505C13.3597 15.5917 13.1237 15.0226 12.6044 14.5958C12.1323 14.169 11.4714 13.9319 10.7161 13.9319H5.52327V18.8639H10.6217ZM38.0964 23.3216H32.762V21.7092C31.4402 23.1319 29.6935 23.8433 27.6164 23.8433C25.6336 23.8433 24.0758 23.1793 22.8956 21.8989C21.7154 20.6185 21.1017 18.9113 21.1017 16.8247V6.48656H26.389V15.6866C26.389 16.6824 26.6722 17.4886 27.1915 18.1051C27.7108 18.7216 28.4189 19.0062 29.2686 19.0062C30.3544 19.0062 31.2041 18.6268 31.8178 17.868C32.4315 17.1092 32.7148 15.9237 32.7148 14.3113V6.48656H38.0492L38.0964 23.3216ZM54.5718 23.3216H40.4096V22.3257L47.0658 10.7546H40.5984V6.48656H54.4774V7.48244L47.8211 19.0536H54.5246V23.3216H54.5718ZM71 23.3216H56.885V22.3257L63.494 10.7546H57.0266V6.48656H70.9056V7.48244L64.2493 19.0536H70.9528L71 23.3216Z" fill="#718087"/>
</svg>
