<svg width="97" height="24" viewBox="0 0 97 24" fill="none" xmlns="http://www.w3.org/2000/svg">
<path opacity="0.8" d="M21.9841 16.2064V21.1649C20.1816 22.75 15.8745 23.6929 12.6678 23.6929C9.46522 23.6929 0.600586 21.7095 0.600586 12.39C0.600586 3.07051 9.03821 1.06274 12.442 1.06274C15.8499 1.06274 19.4795 1.68051 21.5817 3.07051V7.43153C21.5817 7.97615 20.8303 7.92738 20.8303 7.43153C20.7811 6.68776 18.7774 2.2292 13.7682 2.32674C8.36073 2.43648 4.70648 6.64305 4.70648 12.1908C4.70648 17.7386 8.25809 22.502 13.6204 22.3517C15.3613 22.3029 17.1761 21.7583 18.0548 21.0348L18.0753 16.2064C18.0753 14.8205 17.2254 14.3246 16.3754 14.3246C15.8211 14.3246 15.8211 13.5321 16.3754 13.5321H23.6839C24.2341 13.5321 24.2341 14.3734 23.6839 14.3246C22.8381 14.3246 21.9841 14.8205 21.9841 16.2064ZM71.259 7.43559C71.259 7.98021 70.7088 7.93144 70.7088 7.43559C70.6554 6.69182 68.6558 2.08288 63.6466 2.18449C58.2392 2.29016 54.5808 6.64711 54.5808 12.1949C54.5808 17.7427 58.0873 22.6524 63.4455 22.5061C68.8037 22.3557 71.3575 17.1046 71.5587 16.4096C71.7599 15.7146 72.1089 15.8162 72.1089 16.3608V20.4252C69.9081 22.0103 65.7489 23.6969 62.5463 23.6969C59.3437 23.6969 50.479 21.7136 50.479 12.3941C50.479 3.07051 58.892 0.843262 62.2958 0.843262C65.7037 0.843262 69.1568 1.68458 71.2631 3.07051V7.43559H71.259ZM48.5739 1.38788C49.3745 1.38788 49.3745 2.13165 48.5739 2.13165C47.724 2.13165 46.8741 2.6275 46.8741 4.01343L46.7755 14.8449C46.7755 20.0309 42.5259 23.8433 37.2827 23.8433C32.0394 23.8433 27.9459 20.0309 27.9459 14.8449V4.01343C27.9459 2.62343 27.0918 2.13165 26.2419 2.13165C25.4413 2.13165 25.4413 1.38788 26.2419 1.38788H33.6531C34.4537 1.38788 34.4537 2.13165 33.6531 2.13165C32.799 2.13165 31.9491 2.6275 31.9491 4.01343L31.9409 16.1089C31.9409 19.7667 34.9628 22.7337 38.6582 22.7337C42.3535 22.7337 45.3508 19.023 45.3508 15.3691L45.1701 4.01343C45.1701 2.62343 44.3202 2.13165 43.4662 2.13165C42.6696 2.13165 42.6696 1.38788 43.4662 1.38788H48.5739ZM95.7466 7.43559C95.7466 7.98021 95.1964 7.93144 95.1964 7.43559C95.1471 6.69182 93.1434 2.08288 88.1342 2.18449C82.7268 2.29016 79.0684 6.64711 79.0684 12.1949C79.0684 17.7427 82.5748 22.6524 87.933 22.5061C93.2912 22.3598 95.8451 17.1046 96.0463 16.4096C96.2475 15.7146 96.6006 15.8162 96.6006 16.3608V20.4252C94.3957 22.0103 90.2405 23.6969 87.0338 23.6969C83.8312 23.6969 74.9666 21.7136 74.9666 12.3941C74.9666 3.07051 83.3796 0.843262 86.7875 0.843262C90.1913 0.843262 93.6484 1.68458 95.7507 3.07051V7.43559H95.7466Z" fill="#718087"/>
</svg>
