<svg width="95" height="21" viewBox="0 0 95 21" fill="none" xmlns="http://www.w3.org/2000/svg">
<path d="M94.601 9.38607V7.72967H92.5443V5.15459L92.4752 5.17598L90.5054 5.77864V7.72967H87.4561V6.64205C87.4268 6.23028 87.546 5.82164 87.7922 5.49024C87.9108 5.3601 88.0569 5.25802 88.2199 5.1914C88.3829 5.12478 88.5587 5.09531 88.7345 5.10511C89.0434 5.10923 89.3479 5.17849 89.6282 5.30837L89.704 5.34225V3.59937L89.6683 3.58645C89.2986 3.47255 88.9125 3.42103 88.5259 3.434C87.9616 3.4251 87.4043 3.55896 86.9056 3.82314C86.4371 4.07519 86.0512 4.4568 85.7939 4.92235C85.5264 5.41723 85.3909 5.97262 85.4003 6.53507V7.72967H83.9681V9.38607H85.4003V16.3634H87.4561V9.38607H90.5054V13.8186C90.5054 15.6462 91.3666 16.5702 93.0658 16.5702C93.3593 16.5685 93.6518 16.5361 93.9386 16.4735C94.1588 16.4361 94.3727 16.3683 94.5742 16.272L94.6014 16.2559V14.5844L94.5176 14.6397C94.3901 14.7204 94.2506 14.7806 94.1044 14.818C93.9727 14.8587 93.8361 14.8819 93.6983 14.8871C93.538 14.9011 93.3767 14.8798 93.2255 14.8247C93.0743 14.7697 92.937 14.6821 92.8233 14.5683C92.6069 14.2422 92.5084 13.8518 92.5443 13.462V9.38607H94.601ZM79.376 14.8884C79.0479 14.9055 78.7202 14.8483 78.4173 14.721C78.1145 14.5937 77.8442 14.3997 77.6269 14.1533C77.176 13.5589 76.953 12.8226 76.9984 12.0779C76.9506 11.3159 77.1731 10.5614 77.6269 9.94727C77.8397 9.69913 78.1064 9.50287 78.4066 9.37347C78.7067 9.24408 79.0325 9.18496 79.3591 9.20064C79.6757 9.18543 79.9917 9.24164 80.2837 9.36509C80.5756 9.48855 80.8361 9.67609 81.0458 9.91384C81.4961 10.5225 81.7145 11.2718 81.6618 12.0271C81.7138 12.7851 81.5097 13.5386 81.0823 14.1667C80.8738 14.4116 80.6109 14.6043 80.3146 14.7295C80.0184 14.8546 79.6969 14.9096 79.376 14.8884ZM79.4674 7.51839C78.8522 7.48456 78.2367 7.57714 77.6587 7.79042C77.0807 8.00371 76.5526 8.33316 76.1069 8.75846C75.6899 9.21375 75.3678 9.74752 75.1593 10.3286C74.9509 10.9097 74.8602 11.5265 74.8927 12.143C74.8631 12.7336 74.9529 13.3241 75.1565 13.8792C75.3601 14.4344 75.6735 14.9428 76.0779 15.3743C76.4993 15.7789 76.9987 16.0934 77.5456 16.2987C78.0926 16.5039 78.6757 16.5955 79.2592 16.568C79.8654 16.5978 80.4711 16.5014 81.0381 16.2851C81.6051 16.0687 82.1211 15.737 82.5533 15.311C82.9668 14.8601 83.2869 14.3319 83.4953 13.7568C83.7037 13.1816 83.7962 12.5709 83.7675 11.9598C83.8323 10.7674 83.4229 9.59766 82.6286 8.70586C82.2126 8.29994 81.7168 7.98489 81.1726 7.7807C80.6284 7.57651 80.0477 7.48764 79.4674 7.51973V7.51839ZM71.5776 7.51973C70.7227 7.48356 69.8815 7.7435 69.196 8.25566C68.9012 8.47943 68.6635 8.7697 68.5022 9.10279C68.341 9.43588 68.2607 9.80236 68.2679 10.1724C68.2608 10.5389 68.3289 10.903 68.4681 11.2422C68.6062 11.5546 68.8168 11.8296 69.0823 12.0445C69.4652 12.3323 69.885 12.5674 70.3304 12.7434C70.6865 12.8833 71.0337 13.045 71.3699 13.2275C71.5468 13.3198 71.7027 13.4478 71.8277 13.6033C71.9193 13.7499 71.9636 13.921 71.9547 14.0936C71.9547 14.6731 71.5206 14.9557 70.6264 14.9557C70.2434 14.9466 69.8641 14.8772 69.5027 14.7502C69.0914 14.6158 68.7032 14.419 68.3518 14.1667L68.2662 14.1057V16.0852L68.2974 16.0999C68.6469 16.2526 69.0125 16.3655 69.3872 16.4365C69.7697 16.5199 70.1596 16.5647 70.5511 16.5702C71.4491 16.6171 72.3362 16.3559 73.0655 15.8298C73.3652 15.5999 73.6062 15.3023 73.7689 14.9615C73.9316 14.6206 74.0113 14.2461 74.0016 13.8685C74.0164 13.3297 73.8377 12.8035 73.4979 12.3851C73.0222 11.891 72.4356 11.5174 71.7867 11.2952C71.3497 11.1489 70.9383 10.935 70.5676 10.6614C70.483 10.5734 70.4175 10.4689 70.3752 10.3545C70.3328 10.2401 70.3146 10.1181 70.3215 9.9963C70.3197 9.87615 70.3472 9.75737 70.4016 9.65021C70.4559 9.54305 70.5355 9.45071 70.6335 9.38117C70.8897 9.20397 71.1975 9.11708 71.5085 9.13423C71.8618 9.13591 72.2128 9.18983 72.5502 9.29425C72.873 9.38833 73.1797 9.53048 73.46 9.71593L73.5438 9.77343V7.89817L73.5117 7.88435C73.214 7.76571 72.9043 7.67934 72.5881 7.62671C72.2544 7.56132 71.9155 7.52626 71.5754 7.52196L71.5776 7.51973ZM62.9087 14.8884C62.5806 14.9055 62.2529 14.8483 61.95 14.721C61.6472 14.5937 61.377 14.3997 61.1596 14.1533C60.7094 13.5595 60.4866 12.8241 60.5315 12.0802C60.4837 11.3181 60.7063 10.5636 61.1601 9.9495C61.3728 9.70127 61.6395 9.50496 61.9397 9.37556C62.2399 9.24616 62.5657 9.18709 62.8922 9.20287C63.2089 9.18766 63.5249 9.24387 63.8168 9.36732C64.1088 9.49078 64.3693 9.67832 64.5789 9.91607C65.0293 10.5247 65.2478 11.2741 65.195 12.0294C65.247 12.7873 65.0429 13.5408 64.6155 14.169C64.407 14.4139 64.1441 14.6066 63.8478 14.7318C63.5515 14.8569 63.2301 14.911 62.9092 14.8897L62.9087 14.8884ZM63.001 7.52062C62.3858 7.48674 61.7703 7.57929 61.1923 7.79258C60.6143 8.00586 60.0862 8.33535 59.6405 8.76069C59.2235 9.21594 58.9013 9.74969 58.6927 10.3308C58.4842 10.9119 58.3934 11.5287 58.4258 12.1453C58.3963 12.7359 58.4861 13.3264 58.6898 13.8816C58.8935 14.4367 59.207 14.9451 59.6115 15.3765C60.0329 15.7811 60.5323 16.0957 61.0793 16.3009C61.6262 16.5062 62.2093 16.5978 62.7928 16.5702C63.399 16.6 64.0047 16.5036 64.5717 16.2872C65.1387 16.0709 65.6547 15.7392 66.0869 15.3132C66.5004 14.8624 66.8206 14.3341 67.029 13.759C67.2374 13.1838 67.3298 12.5731 67.3011 11.9621C67.3659 10.7695 66.9563 9.59976 66.1618 8.70809C65.7458 8.30222 65.2501 7.9872 64.706 7.78302C64.1619 7.57883 63.5813 7.48993 63.001 7.52196V7.52062ZM55.3051 9.22516V7.72967H53.2743V16.3634H55.3051V11.9465C55.2761 11.297 55.4533 10.6551 55.8115 10.1126C55.9551 9.89633 56.1507 9.7195 56.3804 9.59833C56.61 9.47716 56.8664 9.41553 57.126 9.41906C57.3326 9.4222 57.5379 9.45217 57.7367 9.50821C57.904 9.5454 58.064 9.61017 58.2101 9.69988L58.2957 9.76184V7.71496L58.2627 7.7007C58.0079 7.60964 57.7378 7.56862 57.4675 7.5799C56.9712 7.57502 56.4895 7.74765 56.1093 8.06666C55.7534 8.37925 55.4842 8.77845 55.3279 9.2256L55.3051 9.22516ZM49.6375 7.52151C48.777 7.50418 47.9265 7.70865 47.168 8.11525C46.4705 8.49909 45.9034 9.08235 45.5393 9.79037C45.1555 10.5602 44.9635 11.4114 44.9798 12.2714C44.9697 13.0469 45.1569 13.8123 45.5236 14.4957C45.8718 15.1434 46.3994 15.6769 47.0432 16.0322C47.7249 16.3991 48.4894 16.585 49.2635 16.572C50.1169 16.5994 50.9624 16.4015 51.7151 15.9983L51.7418 15.9831V14.1221L51.6562 14.1846C51.3523 14.405 51.0175 14.5794 50.6627 14.7021C50.351 14.8184 50.0222 14.8821 49.6896 14.8906C49.3385 14.9077 48.9876 14.8506 48.6601 14.7229C48.3325 14.5953 48.0355 14.4 47.7885 14.1498C47.2963 13.5829 47.0447 12.8462 47.0873 12.0967C47.05 11.3262 47.3119 10.571 47.8184 9.98917C48.0612 9.72962 48.3569 9.52514 48.6854 9.3895C49.014 9.25387 49.3678 9.19023 49.723 9.20287C50.4229 9.21386 51.1007 9.44968 51.6562 9.87551L51.7414 9.93746V7.97617L51.7137 7.96057C51.418 7.80861 51.1014 7.70149 50.7741 7.64275C50.4008 7.5637 50.0204 7.52292 49.6388 7.52106L49.6375 7.52151ZM43.582 7.72923H41.5511V16.3634H43.582V7.72923ZM42.5875 4.05136C42.2657 4.04625 41.9549 4.16812 41.7223 4.39057C41.6053 4.49795 41.5124 4.629 41.4499 4.77502C41.3875 4.92105 41.3568 5.0787 41.3599 5.2375C41.3564 5.39338 41.3864 5.54821 41.4479 5.69149C41.5094 5.83476 41.601 5.96314 41.7165 6.06792C41.9522 6.28704 42.264 6.40569 42.5857 6.39867C42.9083 6.4051 43.221 6.28678 43.4585 6.06837C43.5755 5.96434 43.6685 5.8362 43.7312 5.69276C43.7939 5.54933 43.8248 5.39401 43.8218 5.2375C43.8234 5.08111 43.7929 4.92606 43.7321 4.78198C43.6713 4.6379 43.5815 4.50785 43.4683 4.39993C43.3522 4.28538 43.2141 4.19546 43.0623 4.13556C42.9106 4.07566 42.7483 4.04702 42.5853 4.05136H42.5875ZM37.518 7.09225V16.3638H39.5907V4.31613H36.7224L33.0761 13.2645L29.5378 4.31613H26.5513V16.3629H28.4992V7.09136H28.5661L32.3023 16.3629H33.7733L37.4516 7.09136L37.518 7.09225Z" fill="#718087"/>
<path d="M9.97657 9.84376H0.422852V0.290039H9.97657V9.84376Z" fill="#718087"/>
<path d="M20.5252 9.84376H10.9715V0.290039H20.5252V9.84376Z" fill="#718087"/>
<path d="M9.97657 20.3959H0.422852V10.8422H9.97657V20.3959Z" fill="#718087"/>
<path d="M20.5252 20.3959H10.9715V10.8422H20.5252V20.3959Z" fill="#718087"/>
</svg>
