<svg width="76" height="17" viewBox="0 0 76 17" fill="none" xmlns="http://www.w3.org/2000/svg">
<path d="M12.7761 0.343262H15.6605V9.6956C15.6605 14.6162 12.5849 16.3433 8.12283 16.3433C3.67671 16.3433 0.601074 14.6162 0.601074 9.6956V0.718007C0.601074 0.457315 0.728562 0.343262 0.983537 0.343262H3.86794V9.54896C3.86794 12.498 5.14282 13.72 8.12283 13.72C11.1188 13.72 12.3937 12.498 12.3937 9.54896V0.718007C12.3937 0.457315 12.5212 0.343262 12.7761 0.343262ZM45.4289 2.90131V6.84428H52.7275C52.855 6.84428 52.9028 6.90945 52.855 7.0398L52.0582 9.06017C51.9785 9.23939 51.867 9.32086 51.6279 9.32086H47.3412C45.9388 9.32086 45.4289 9.76078 45.4289 10.7221V13.5082H55.3091C55.4366 13.5082 55.4844 13.5734 55.4366 13.7038L54.608 15.8056C54.5283 15.9848 54.4167 16.0663 54.1777 16.0663H43.3572C42.5285 16.0663 42.2098 15.773 42.2098 15.1376V1.43491C42.2098 0.669127 42.6241 0.343262 43.7078 0.343262H55.3091C55.4366 0.343262 55.4844 0.408435 55.4366 0.522488L54.608 2.64061C54.5283 2.81984 54.4167 2.90131 54.1777 2.90131H45.4289ZM36.2657 11.716C36.2657 14.8606 34.0984 16.0663 31.0546 16.0663H22.9911C22.1465 16.0663 21.8437 15.773 21.8437 15.1376V1.43491C21.8437 0.669127 22.2421 0.343262 23.3417 0.343262H29.8913C32.7598 0.343262 35.5326 0.848353 35.5326 4.33512C35.5326 5.8341 35.0068 7.10497 33.7478 7.773C35.4848 8.2455 36.2657 9.84224 36.2657 11.716ZM25.0149 6.89316H30.1304C31.8196 6.89316 32.2976 6.22514 32.2976 4.8565C32.2976 3.48786 31.8196 2.83613 30.1304 2.83613H25.0149V6.89316ZM33.0307 11.4227C33.0307 9.97259 32.5367 9.25569 30.72 9.25569H26.9432C25.5408 9.25569 25.0149 9.6956 25.0149 10.6569V13.5734H30.72C32.5367 13.5734 33.0307 12.8565 33.0307 11.4227ZM75.4203 16.0663H72.4881C72.249 16.0663 72.1534 15.9685 72.0578 15.8056L68.9503 10.0703H66.0978C64.6954 10.0703 64.1695 10.5103 64.1695 11.4716V16.0663H61.3648C61.1098 16.0663 60.9823 15.9359 60.9823 15.6915V1.43491C60.9823 0.669127 61.3967 0.343262 62.4803 0.343262H69.0618C72.9024 0.343262 75.2131 1.36974 75.2131 5.18237C75.2131 8.13145 73.8267 9.28827 72.1056 9.74448L75.5637 15.7893C75.6274 15.8871 75.6274 16.0663 75.4203 16.0663ZM71.9781 5.24754C71.9781 3.6508 71.5479 2.86872 69.5399 2.86872H64.1695V7.62636H69.5399C71.5479 7.62636 71.9781 6.86057 71.9781 5.24754Z" fill="#718087"/>
</svg>
